<svg xmlns="http://www.w3.org/2000/svg" width="2400" height="1350" viewBox="0 0 2400 1350" role="img" aria-label="Urban loft with floating Smart Lease UI">
  <defs>
    <linearGradient id="g0" x1="0" y1="0" x2="1" y2="1">
      <stop offset="0" stop-color="#05070c"/>
      <stop offset="1" stop-color="#0b1020"/>
    </linearGradient>
    <radialGradient id="goldGlow" cx="30%" cy="24%" r="70%">
      <stop offset="0" stop-color="rgba(212,175,55,.26)"/>
      <stop offset="0.55" stop-color="rgba(212,175,55,.08)"/>
      <stop offset="1" stop-color="rgba(212,175,55,0)"/>
    </radialGradient>
    <radialGradient id="blueGlow" cx="80%" cy="18%" r="70%">
      <stop offset="0" stop-color="rgba(120,180,255,.10)"/>
      <stop offset="1" stop-color="rgba(120,180,255,0)"/>
    </radialGradient>
    <filter id="blur" x="-20%" y="-20%" width="140%" height="140%">
      <feGaussianBlur stdDeviation="8"/>
    </filter>
  </defs>

  <rect width="2400" height="1350" fill="url(#g0)"/>
  <rect width="2400" height="1350" fill="url(#goldGlow)"/>
  <rect width="2400" height="1350" fill="url(#blueGlow)"/>

  <g opacity="0.8"><path d="M -77.1 934.3 Q 1167.5 996.3 1670.0 1202.4" stroke="rgba(243,210,122,0.126)" stroke-width="1.66" fill="none"/><path d="M 1658.2 1064.1 Q 1122.3 751.2 102.5 177.1" stroke="rgba(243,210,122,0.105)" stroke-width="1.18" fill="none"/><path d="M 934.9 350.9 Q 1399.0 469.6 2581.8 885.5" stroke="rgba(243,210,122,0.128)" stroke-width="1.40" fill="none"/><path d="M 841.1 428.9 Q 351.0 758.8 400.5 1183.7" stroke="rgba(243,210,122,0.069)" stroke-width="1.45" fill="none"/><path d="M 1568.1 908.6 Q 1163.5 1185.9 609.5 1428.7" stroke="rgba(243,210,122,0.126)" stroke-width="1.47" fill="none"/><path d="M 1132.5 209.3 Q 1318.3 247.7 2005.6 530.1" stroke="rgba(243,210,122,0.119)" stroke-width="1.73" fill="none"/><path d="M 1605.8 1375.2 Q 1192.4 889.1 1111.1 625.0" stroke="rgba(243,210,122,0.088)" stroke-width="1.45" fill="none"/><path d="M 1061.5 1368.3 Q 1560.3 1028.7 1906.9 636.5" stroke="rgba(243,210,122,0.062)" stroke-width="1.52" fill="none"/><path d="M 2222.4 635.1 Q 2120.0 804.7 1566.0 559.1" stroke="rgba(243,210,122,0.131)" stroke-width="1.93" fill="none"/><path d="M 2297.4 1395.1 Q 2146.5 1048.5 2278.0 439.2" stroke="rgba(243,210,122,0.089)" stroke-width="1.07" fill="none"/><path d="M 1506.9 598.9 Q 1448.2 747.6 883.4 977.8" stroke="rgba(243,210,122,0.137)" stroke-width="2.10" fill="none"/><path d="M 2444.8 408.0 Q 2177.6 201.3 2391.5 -10.7" stroke="rgba(243,210,122,0.091)" stroke-width="1.93" fill="none"/><path d="M 698.1 918.5 Q 894.8 784.7 1814.4 672.6" stroke="rgba(243,210,122,0.074)" stroke-width="1.40" fill="none"/><path d="M 731.6 93.4 Q 1409.0 105.3 2061.4 -47.4" stroke="rgba(243,210,122,0.060)" stroke-width="1.41" fill="none"/></g>
  <g><circle cx="491.1" cy="402.1" r="4.0" fill="rgba(212,175,55,0.075)"/><circle cx="1904.3" cy="108.4" r="5.2" fill="rgba(212,175,55,0.094)"/><circle cx="959.7" cy="1196.0" r="3.5" fill="rgba(212,175,55,0.130)"/><circle cx="107.1" cy="440.0" r="3.4" fill="rgba(212,175,55,0.092)"/><circle cx="1372.2" cy="248.1" r="2.1" fill="rgba(212,175,55,0.127)"/><circle cx="2380.9" cy="78.4" r="4.0" fill="rgba(212,175,55,0.130)"/><circle cx="999.1" cy="1200.8" r="5.1" fill="rgba(212,175,55,0.084)"/><circle cx="1083.3" cy="568.7" r="3.9" fill="rgba(212,175,55,0.072)"/><circle cx="953.3" cy="310.9" r="2.6" fill="rgba(212,175,55,0.137)"/><circle cx="1598.0" cy="576.5" r="3.5" fill="rgba(212,175,55,0.091)"/><circle cx="91.4" cy="902.8" r="3.0" fill="rgba(212,175,55,0.116)"/><circle cx="1396.0" cy="275.7" r="3.9" fill="rgba(212,175,55,0.107)"/><circle cx="1729.2" cy="1152.5" r="5.7" fill="rgba(212,175,55,0.112)"/><circle cx="2265.5" cy="1112.1" r="2.4" fill="rgba(212,175,55,0.091)"/><circle cx="255.1" cy="973.8" r="4.2" fill="rgba(212,175,55,0.106)"/><circle cx="1084.8" cy="374.4" r="4.5" fill="rgba(212,175,55,0.068)"/><circle cx="1753.6" cy="398.7" r="3.2" fill="rgba(212,175,55,0.067)"/><circle cx="1582.1" cy="995.4" r="2.3" fill="rgba(212,175,55,0.093)"/><circle cx="1761.4" cy="503.0" r="3.7" fill="rgba(212,175,55,0.086)"/><circle cx="2088.2" cy="816.1" r="5.7" fill="rgba(212,175,55,0.089)"/><circle cx="807.8" cy="1108.2" r="2.4" fill="rgba(212,175,55,0.134)"/><circle cx="1572.2" cy="1033.1" r="4.9" fill="rgba(212,175,55,0.095)"/><circle cx="1065.9" cy="727.0" r="2.6" fill="rgba(212,175,55,0.133)"/><circle cx="11.2" cy="962.8" r="2.1" fill="rgba(212,175,55,0.094)"/><circle cx="1.8" cy="874.3" r="4.6" fill="rgba(212,175,55,0.089)"/><circle cx="1175.8" cy="143.2" r="3.3" fill="rgba(212,175,55,0.129)"/><circle cx="1614.2" cy="588.5" r="4.2" fill="rgba(212,175,55,0.084)"/><circle cx="1258.2" cy="39.6" r="2.4" fill="rgba(212,175,55,0.081)"/><circle cx="1316.7" cy="933.0" r="5.9" fill="rgba(212,175,55,0.125)"/><circle cx="1876.6" cy="267.2" r="4.0" fill="rgba(212,175,55,0.128)"/><circle cx="168.1" cy="684.0" r="4.8" fill="rgba(212,175,55,0.127)"/><circle cx="1088.4" cy="377.8" r="3.3" fill="rgba(212,175,55,0.128)"/><circle cx="1672.8" cy="587.4" r="3.8" fill="rgba(212,175,55,0.057)"/><circle cx="1912.1" cy="468.1" r="2.4" fill="rgba(212,175,55,0.102)"/><circle cx="2290.5" cy="573.3" r="5.1" fill="rgba(212,175,55,0.089)"/><circle cx="992.7" cy="1191.1" r="4.3" fill="rgba(212,175,55,0.093)"/><circle cx="418.9" cy="949.4" r="4.4" fill="rgba(212,175,55,0.130)"/><circle cx="237.7" cy="1073.3" r="3.9" fill="rgba(212,175,55,0.098)"/></g>

  <g filter="url(#blur)" opacity="0.9">
    <circle cx="1752.0" cy="621.0" r="210" fill="rgba(255,255,255,.04)"/>
  </g>

  <g><circle cx="1752.0" cy="621.0" r="160" fill="none" stroke="rgba(212,175,55,0.180)" stroke-width="1.2"/><circle cx="1752.0" cy="621.0" r="215" fill="none" stroke="rgba(212,175,55,0.150)" stroke-width="1.2"/><circle cx="1752.0" cy="621.0" r="270" fill="none" stroke="rgba(212,175,55,0.120)" stroke-width="1.2"/><circle cx="1752.0" cy="621.0" r="325" fill="none" stroke="rgba(212,175,55,0.090)" stroke-width="1.2"/></g>

  <g>
    <rect x="1562.0" y="555.0" width="380" height="132" rx="26" fill="rgba(255,255,255,.05)" stroke="rgba(255,255,255,.10)"/>
    <text x="1752.0" y="613.0" text-anchor="middle" font-family="ui-sans-serif,system-ui" font-size="50" fill="rgba(245,247,255,.92)" letter-spacing="2">W3</text>
    <text x="1752.0" y="655.0" text-anchor="middle" font-family="ui-sans-serif,system-ui" font-size="22" fill="rgba(245,247,255,.60)" letter-spacing="1">w3.apartments</text>
  </g>

  <g opacity="0.9">
    <circle cx="432.0" cy="1053.0" r="280" fill="rgba(212,175,55,.06)"/>
    <circle cx="432.0" cy="1053.0" r="279" fill="none" stroke="rgba(255,255,255,.06)"/>
  </g>
</svg>